# xmcd CD database file
#
# Track frame offsets:
#	150
#	31817
#	47391
#	65895
#	79422
#	93899
#	118708
#	149850
#	174864
#	207104
#	227113
#	240324
#	266838
#	280535
#
# Disc length: 4197 seconds
#
# Revision: 1
# Processed by: cddbd v1.5.2PL0 Copyright (c) Steve Scherf et al.
# Submitted via: CDValet v3.40 - Copyright (c) 1996 - 1998 Greg Leichner
#
DISCID=c010630e
DTITLE=Vaughan, Stevie Ray, and Friends - Solos, Sessions and Enc
DTITLE=ores
DYEAR=1900
DGENRE=
TTITLE0=The Sky Is Crying 
TTITLE1=Soulful Dress
TTITLE2=Don't Stop By the Creek, Son 
TTITLE3=Miami Strut
TTITLE4=Na-Na-Ne-Na-Nay
TTITLE5=Goin' Down 
TTITLE6=Oreo Cookie Blues 
TTITLE7=On the Run 
TTITLE8=Albert's Shuffle 
TTITLE9=Change It 
TTITLE10=You Can Have My Husband 
TTITLE11=Texas Flood 
TTITLE12=Pipeline 
TTITLE13=Let's Dance 
EXTD=
EXTT0=
EXTT1=
EXTT2=
EXTT3=
EXTT4=
EXTT5=
EXTT6=
EXTT7=
EXTT8=
EXTT9=
EXTT10=
EXTT11=
EXTT12=
EXTT13=
PLAYORDER=
